%TF.GenerationSoftware,KiCad,Pcbnew,(5.1.7)-1*%
%TF.CreationDate,2020-10-27T16:51:06-05:00*%
%TF.ProjectId,PCB_Motor,5043425f-4d6f-4746-9f72-2e6b69636164,rev?*%
%TF.SameCoordinates,Original*%
%TF.FileFunction,Copper,L2,Bot*%
%TF.FilePolarity,Positive*%
%FSLAX46Y46*%
G04 Gerber Fmt 4.6, Leading zero omitted, Abs format (unit mm)*
G04 Created by KiCad (PCBNEW (5.1.7)-1) date 2020-10-27 16:51:06*
%MOMM*%
%LPD*%
G01*
G04 APERTURE LIST*
%TA.AperFunction,ComponentPad*%
%ADD10R,1.700000X1.700000*%
%TD*%
%TA.AperFunction,ComponentPad*%
%ADD11O,1.700000X1.700000*%
%TD*%
%TA.AperFunction,ComponentPad*%
%ADD12R,3.000000X3.000000*%
%TD*%
%TA.AperFunction,ComponentPad*%
%ADD13C,3.000000*%
%TD*%
%TA.AperFunction,ComponentPad*%
%ADD14C,1.600000*%
%TD*%
%TA.AperFunction,ComponentPad*%
%ADD15R,1.800000X1.800000*%
%TD*%
%TA.AperFunction,ComponentPad*%
%ADD16C,1.800000*%
%TD*%
%TA.AperFunction,ComponentPad*%
%ADD17O,1.600000X1.600000*%
%TD*%
%TA.AperFunction,ComponentPad*%
%ADD18C,1.400000*%
%TD*%
%TA.AperFunction,ComponentPad*%
%ADD19O,1.400000X1.400000*%
%TD*%
G04 APERTURE END LIST*
D10*
%TO.P,Pi4,1*%
%TO.N,Net-(J1-Pad1)*%
X116489480Y-92506800D03*
D11*
%TO.P,Pi4,2*%
%TO.N,Net-(J1-Pad2)*%
X119029480Y-92506800D03*
%TO.P,Pi4,3*%
%TO.N,Net-(J1-Pad3)*%
X116489480Y-95046800D03*
%TO.P,Pi4,4*%
%TO.N,Net-(J1-Pad4)*%
X119029480Y-95046800D03*
%TO.P,Pi4,5*%
%TO.N,Net-(J1-Pad5)*%
X116489480Y-97586800D03*
%TO.P,Pi4,6*%
%TO.N,Net-(J1-Pad6)*%
X119029480Y-97586800D03*
%TO.P,Pi4,7*%
%TO.N,Net-(J1-Pad7)*%
X116489480Y-100126800D03*
%TO.P,Pi4,8*%
%TO.N,Net-(J1-Pad8)*%
X119029480Y-100126800D03*
%TO.P,Pi4,9*%
%TO.N,GND*%
X116489480Y-102666800D03*
%TO.P,Pi4,10*%
%TO.N,Net-(J1-Pad10)*%
X119029480Y-102666800D03*
%TO.P,Pi4,11*%
%TO.N,Net-(J1-Pad11)*%
X116489480Y-105206800D03*
%TO.P,Pi4,12*%
%TO.N,Net-(J1-Pad12)*%
X119029480Y-105206800D03*
%TO.P,Pi4,13*%
%TO.N,Net-(J1-Pad13)*%
X116489480Y-107746800D03*
%TO.P,Pi4,14*%
%TO.N,Net-(J1-Pad14)*%
X119029480Y-107746800D03*
%TO.P,Pi4,15*%
%TO.N,Net-(J1-Pad15)*%
X116489480Y-110286800D03*
%TO.P,Pi4,16*%
%TO.N,Net-(J1-Pad16)*%
X119029480Y-110286800D03*
%TO.P,Pi4,17*%
%TO.N,Net-(J1-Pad17)*%
X116489480Y-112826800D03*
%TO.P,Pi4,18*%
%TO.N,Net-(J1-Pad18)*%
X119029480Y-112826800D03*
%TO.P,Pi4,19*%
%TO.N,Net-(J1-Pad19)*%
X116489480Y-115366800D03*
%TO.P,Pi4,20*%
%TO.N,Net-(J1-Pad20)*%
X119029480Y-115366800D03*
%TO.P,Pi4,21*%
%TO.N,Net-(J1-Pad21)*%
X116489480Y-117906800D03*
%TO.P,Pi4,22*%
%TO.N,Net-(J1-Pad22)*%
X119029480Y-117906800D03*
%TO.P,Pi4,23*%
%TO.N,Net-(J1-Pad23)*%
X116489480Y-120446800D03*
%TO.P,Pi4,24*%
%TO.N,Net-(J1-Pad24)*%
X119029480Y-120446800D03*
%TO.P,Pi4,25*%
%TO.N,Net-(J1-Pad25)*%
X116489480Y-122986800D03*
%TO.P,Pi4,26*%
%TO.N,Net-(J1-Pad26)*%
X119029480Y-122986800D03*
%TO.P,Pi4,27*%
%TO.N,Net-(J1-Pad27)*%
X116489480Y-125526800D03*
%TO.P,Pi4,28*%
%TO.N,Net-(J1-Pad28)*%
X119029480Y-125526800D03*
%TO.P,Pi4,29*%
%TO.N,Net-(J1-Pad29)*%
X116489480Y-128066800D03*
%TO.P,Pi4,30*%
%TO.N,Net-(J1-Pad30)*%
X119029480Y-128066800D03*
%TO.P,Pi4,31*%
%TO.N,Net-(J1-Pad31)*%
X116489480Y-130606800D03*
%TO.P,Pi4,32*%
%TO.N,Net-(J1-Pad32)*%
X119029480Y-130606800D03*
%TO.P,Pi4,33*%
%TO.N,Net-(J1-Pad33)*%
X116489480Y-133146800D03*
%TO.P,Pi4,34*%
%TO.N,Net-(J1-Pad34)*%
X119029480Y-133146800D03*
%TO.P,Pi4,35*%
%TO.N,Net-(J1-Pad35)*%
X116489480Y-135686800D03*
%TO.P,Pi4,36*%
%TO.N,Net-(J1-Pad36)*%
X119029480Y-135686800D03*
%TO.P,Pi4,37*%
%TO.N,Net-(J1-Pad37)*%
X116489480Y-138226800D03*
%TO.P,Pi4,38*%
%TO.N,Net-(J1-Pad38)*%
X119029480Y-138226800D03*
%TO.P,Pi4,39*%
%TO.N,GND*%
X116489480Y-140766800D03*
%TO.P,Pi4,40*%
%TO.N,Net-(J1-Pad40)*%
X119029480Y-140766800D03*
%TD*%
D12*
%TO.P,Vin,1*%
%TO.N,Net-(C1-Pad1)*%
X106426000Y-137668000D03*
D13*
%TO.P,Vin,2*%
%TO.N,Net-(C1-Pad2)*%
X111506000Y-137668000D03*
%TD*%
%TO.P,MOTOR,2*%
%TO.N,Net-(J4-Pad4)*%
X92710000Y-115570000D03*
%TO.P,MOTOR,3*%
%TO.N,Net-(J4-Pad5)*%
X92710000Y-110490000D03*
D12*
%TO.P,MOTOR,1*%
%TO.N,Net-(J4-Pad3)*%
X92710000Y-120650000D03*
D13*
%TO.P,MOTOR,4*%
%TO.N,Net-(J4-Pad6)*%
X92710000Y-105410000D03*
%TD*%
D14*
%TO.P,C1,1*%
%TO.N,Net-(C1-Pad1)*%
X98806000Y-135890000D03*
%TO.P,C1,2*%
%TO.N,Net-(C1-Pad2)*%
X98806000Y-139390000D03*
%TD*%
D15*
%TO.P,LED,1*%
%TO.N,GND*%
X96520000Y-128270000D03*
D16*
%TO.P,LED,2*%
%TO.N,Net-(D1-Pad2)*%
X99060000Y-128270000D03*
%TD*%
D13*
%TO.P,Laser,2*%
%TO.N,Net-(J1-Pad3)*%
X109753400Y-95123000D03*
D12*
%TO.P,Laser,1*%
%TO.N,GND*%
X104673400Y-95123000D03*
%TD*%
D10*
%TO.P,J3,1*%
%TO.N,Net-(J3-Pad1)*%
X111760000Y-121920000D03*
D11*
%TO.P,J3,2*%
%TO.N,Net-(J3-Pad2)*%
X111760000Y-119380000D03*
%TO.P,J3,3*%
%TO.N,Net-(J3-Pad3)*%
X111760000Y-116840000D03*
%TO.P,J3,4*%
%TO.N,Net-(J3-Pad4)*%
X111760000Y-114300000D03*
%TO.P,J3,5*%
%TO.N,Net-(J1-Pad1)*%
X111760000Y-111760000D03*
%TO.P,J3,6*%
X111760000Y-109220000D03*
%TO.P,J3,7*%
%TO.N,Net-(J1-Pad13)*%
X111760000Y-106680000D03*
%TO.P,J3,8*%
%TO.N,Net-(J1-Pad11)*%
X111760000Y-104140000D03*
%TD*%
D10*
%TO.P,DRV8825,1*%
%TO.N,Net-(C1-Pad1)*%
X99060000Y-121920000D03*
D11*
%TO.P,DRV8825,2*%
%TO.N,Net-(C1-Pad2)*%
X99060000Y-119380000D03*
%TO.P,DRV8825,3*%
%TO.N,Net-(J4-Pad3)*%
X99060000Y-116840000D03*
%TO.P,DRV8825,4*%
%TO.N,Net-(J4-Pad4)*%
X99060000Y-114300000D03*
%TO.P,DRV8825,5*%
%TO.N,Net-(J4-Pad5)*%
X99060000Y-111760000D03*
%TO.P,DRV8825,6*%
%TO.N,Net-(J4-Pad6)*%
X99060000Y-109220000D03*
%TO.P,DRV8825,7*%
%TO.N,Net-(J4-Pad7)*%
X99060000Y-106680000D03*
%TO.P,DRV8825,8*%
%TO.N,GND*%
X99060000Y-104140000D03*
%TD*%
D10*
%TO.P,Vin2,1*%
%TO.N,Net-(C1-Pad1)*%
X92456000Y-136144000D03*
D11*
%TO.P,Vin2,2*%
%TO.N,Net-(C1-Pad2)*%
X92456000Y-138684000D03*
%TD*%
D14*
%TO.P,R1,1*%
%TO.N,Net-(J1-Pad13)*%
X113030000Y-128270000D03*
D17*
%TO.P,R1,2*%
%TO.N,Net-(D1-Pad2)*%
X102870000Y-128270000D03*
%TD*%
D18*
%TO.P,TD,1*%
%TO.N,GND*%
X93345000Y-128270000D03*
D19*
%TO.P,TD,2*%
%TO.N,Net-(C1-Pad2)*%
X90805000Y-128270000D03*
%TD*%
M02*
