M48
; DRILL file {KiCad (5.1.7)-1} date 10/27/20 16:51:02
; FORMAT={-:-/ absolute / metric / decimal}
; #@! TF.CreationDate,2020-10-27T16:51:02-05:00
; #@! TF.GenerationSoftware,Kicad,Pcbnew,(5.1.7)-1
; #@! TF.FileFunction,Plated,1,2,PTH
FMAT,2
METRIC
T1C0.700
T2C0.800
T3C0.900
T4C1.000
T5C1.520
%
G90
G05
T1
X90.805Y-128.27
X93.345Y-128.27
T2
X102.87Y-128.27
X113.03Y-128.27
X98.806Y-135.89
X98.806Y-139.39
T3
X96.52Y-128.27
X99.06Y-128.27
T4
X99.06Y-104.14
X99.06Y-106.68
X99.06Y-109.22
X99.06Y-111.76
X99.06Y-114.3
X99.06Y-116.84
X99.06Y-119.38
X99.06Y-121.92
X92.456Y-136.144
X92.456Y-138.684
X116.489Y-92.507
X116.489Y-95.047
X116.489Y-97.587
X116.489Y-100.127
X116.489Y-102.667
X116.489Y-105.207
X116.489Y-107.747
X116.489Y-110.287
X116.489Y-112.827
X116.489Y-115.367
X116.489Y-117.907
X116.489Y-120.447
X116.489Y-122.987
X116.489Y-125.527
X116.489Y-128.067
X116.489Y-130.607
X116.489Y-133.147
X116.489Y-135.687
X116.489Y-138.227
X116.489Y-140.767
X119.029Y-92.507
X119.029Y-95.047
X119.029Y-97.587
X119.029Y-100.127
X119.029Y-102.667
X119.029Y-105.207
X119.029Y-107.747
X119.029Y-110.287
X119.029Y-112.827
X119.029Y-115.367
X119.029Y-117.907
X119.029Y-120.447
X119.029Y-122.987
X119.029Y-125.527
X119.029Y-128.067
X119.029Y-130.607
X119.029Y-133.147
X119.029Y-135.687
X119.029Y-138.227
X119.029Y-140.767
X111.76Y-104.14
X111.76Y-106.68
X111.76Y-109.22
X111.76Y-111.76
X111.76Y-114.3
X111.76Y-116.84
X111.76Y-119.38
X111.76Y-121.92
T5
X106.426Y-137.668
X111.506Y-137.668
X104.673Y-95.123
X109.753Y-95.123
X92.71Y-105.41
X92.71Y-110.49
X92.71Y-115.57
X92.71Y-120.65
T0
M30
